<?xml version="1.0" encoding="UTF-8" standalone="no"?>
<!-- Created with Inkscape (http://www.inkscape.org/) -->

<svg
   version="1.1"
   id="svg1"
   width="1024"
   height="1024"
   viewBox="0 0 1024 1024"
   sodipodi:docname="original-white-bg2.svg"
   xml:space="preserve"
   inkscape:version="1.4 (86a8ad7, 2024-10-11)"
   inkscape:export-filename="original-white-bg2.png"
   inkscape:export-xdpi="96"
   inkscape:export-ydpi="96"
   xmlns:inkscape="http://www.inkscape.org/namespaces/inkscape"
   xmlns:sodipodi="http://sodipodi.sourceforge.net/DTD/sodipodi-0.dtd"
   xmlns="http://www.w3.org/2000/svg"
   xmlns:svg="http://www.w3.org/2000/svg"><defs
     id="defs1"><filter
       id="mask-powermask-path-effect800_inverse"
       inkscape:label="filtermask-powermask-path-effect800"
       style="color-interpolation-filters:sRGB"
       height="100"
       width="100"
       x="-50"
       y="-50"><feColorMatrix
         id="mask-powermask-path-effect800_primitive1"
         values="1"
         type="saturate"
         result="fbSourceGraphic" /><feColorMatrix
         id="mask-powermask-path-effect800_primitive2"
         values="-1 0 0 0 1 0 -1 0 0 1 0 0 -1 0 1 0 0 0 1 0 "
         in="fbSourceGraphic" /></filter></defs><sodipodi:namedview
     id="namedview1"
     pagecolor="#ffffff"
     bordercolor="#000000"
     borderopacity="0.25"
     inkscape:showpageshadow="2"
     inkscape:pageopacity="0.0"
     inkscape:pagecheckerboard="true"
     inkscape:deskcolor="#d1d1d1"
     showgrid="false"
     inkscape:zoom="0.53378276"
     inkscape:cx="607.92522"
     inkscape:cy="649.14049"
     inkscape:window-width="1816"
     inkscape:window-height="1179"
     inkscape:window-x="4097"
     inkscape:window-y="50"
     inkscape:window-maximized="0"
     inkscape:current-layer="g1" /><g
     inkscape:groupmode="layer"
     inkscape:label="Image"
     id="g1"><rect
       style="fill:#f9f9f9;fill-opacity:1;stroke:none;stroke-width:9.65564;stroke-linecap:round;stroke-linejoin:round;stroke-opacity:1"
       id="rect3"
       width="709.29547"
       height="690.15125"
       x="92.027649"
       y="243.71675" /><ellipse
       style="fill:#ffffff;fill-opacity:1;stroke:none;stroke-width:11.2535;stroke-linecap:round;stroke-linejoin:round;stroke-opacity:1"
       id="path2"
       cx="694.4884"
       cy="325.68826"
       rx="243.75836"
       ry="241.39178" /><g
       id="g805"
       transform="matrix(1.7291811,0,0,1.7291811,-428.64514,-364.32191)"><rect
         style="fill:#3b8226;fill-opacity:1;stroke:none;stroke-width:45.7129;stroke-dasharray:none;stroke-opacity:1"
         id="rect804"
         width="104.45972"
         height="104.45972"
         x="328.33661"
         y="378.95731"
         ry="13.62518" /><rect
         style="fill:#70b530;fill-opacity:1;stroke:none;stroke-width:45.7129;stroke-dasharray:none;stroke-opacity:1"
         id="rect804-2"
         width="104.45972"
         height="104.45972"
         x="328.33661"
         y="501.11774"
         ry="13.62518" /><rect
         style="fill:#3b8425;fill-opacity:1;stroke:none;stroke-width:45.7129;stroke-dasharray:none;stroke-opacity:1"
         id="rect804-4"
         width="104.45972"
         height="104.45972"
         x="328.33661"
         y="623.27814"
         ry="13.62518" /><path
         id="rect804-0"
         style="fill:#78bc35;fill-opacity:1;stroke:none;stroke-width:45.7129;stroke-dasharray:none;stroke-opacity:1"
         d="m 464.09375,378.95703 c -7.54835,0 -13.625,6.07665 -13.625,13.625 v 77.20899 c 0,7.54835 6.07665,13.62695 13.625,13.62695 h 46.10156 A 168.19753,168.19753 0 0 1 487.5,399.03906 a 168.19753,168.19753 0 0 1 1.20312,-20.08203 z" /><path
         id="rect804-2-0"
         style="fill:#73b831;fill-opacity:1;stroke:none;stroke-width:45.7129;stroke-dasharray:none;stroke-opacity:1"
         d="m 464.09375,501.11719 c -7.54835,0 -13.625,6.07665 -13.625,13.625 v 77.21093 c 0,7.54835 6.07665,13.625 13.625,13.625 h 77.20898 c 7.54835,0 13.625,-6.07665 13.625,-13.625 v -58.24414 a 168.19753,168.19753 0 0 1 -32.91015,-32.59179 z" /><rect
         style="fill:#65a92b;fill-opacity:1;stroke:none;stroke-width:45.7129;stroke-dasharray:none;stroke-opacity:1"
         id="rect804-4-6"
         width="104.45972"
         height="104.45972"
         x="450.46844"
         y="623.27814"
         ry="13.62518" /><path
         id="rect804-2-6"
         style="fill:#70b631;fill-opacity:1;stroke:none;stroke-width:45.7129;stroke-dasharray:none;stroke-opacity:1"
         d="m 572.59961,545.27539 v 46.67773 c 0,7.54835 6.07665,13.625 13.625,13.625 h 77.21094 c 7.54835,0 13.625,-6.07665 13.625,-13.625 V 565.875 a 168.19753,168.19753 0 0 1 -21.36328,1.36133 168.19753,168.19753 0 0 1 -83.09766,-21.96094 z" /><rect
         style="fill:#73b932;fill-opacity:1;stroke:none;stroke-width:45.7129;stroke-dasharray:none;stroke-opacity:1"
         id="rect804-4-0"
         width="104.45972"
         height="104.45972"
         x="572.60028"
         y="623.27814"
         ry="13.62518" /><path
         id="rect800"
         style="baseline-shift:baseline;display:inline;overflow:visible;opacity:1;vector-effect:none;fill:#255a1a;fill-opacity:1;enable-background:accumulate;stop-color:#000000;stop-opacity:1"
         d="m 321.29102,320.19141 c -28.30524,0 -51.68164,23.37836 -51.68164,51.68359 v 360.63281 c 0,28.30524 23.3764,51.68164 51.68164,51.68164 h 360.63476 c 28.30524,0 51.68164,-23.3764 51.68164,-51.68164 V 548.41992 c -11.84615,6.20964 -24.51515,11.05175 -37.79492,14.3125 v 169.77539 c 0,8.02041 -5.86631,13.88672 -13.88672,13.88672 H 321.29102 c -8.02041,0 -13.88672,-5.86631 -13.88672,-13.88672 V 371.875 c 0,-8.02041 5.86631,-13.88867 13.88672,-13.88867 h 170.94531 c 3.34467,-13.28892 8.27436,-25.95853 14.57422,-37.79492 z"
         sodipodi:nodetypes="ssssssccssssssccs" /><circle
         style="fill:none;stroke:#255a1a;stroke-width:46.2977;stroke-dasharray:none;stroke-opacity:1"
         id="path800-2"
         cx="655.69745"
         cy="399.0387"
         r="147.14737" /><circle
         style="fill:#275a1c;fill-opacity:1;stroke:none;stroke-width:9.43545;stroke-dasharray:none;stroke-opacity:1"
         id="path800-2-2"
         cx="659.94092"
         cy="403.26984"
         r="29.988581" /><rect
         style="fill:#255a1a;fill-opacity:1;stroke:none;stroke-width:45.4313;stroke-dasharray:none;stroke-opacity:1"
         id="rect803"
         width="27.082468"
         height="114.3482"
         x="646.39972"
         y="302.49677"
         ry="13.541234" /><rect
         style="fill:#255a1a;fill-opacity:1;stroke:none;stroke-width:45.4313;stroke-dasharray:none;stroke-opacity:1"
         id="rect803-6"
         width="27.082468"
         height="114.3482"
         x="-416.8111"
         y="558.96179"
         ry="13.541234"
         transform="rotate(-90)" /></g></g></svg>
